<svg width="20" height="23" viewBox="0 0 20 23" fill="none" xmlns="http://www.w3.org/2000/svg">
<g clip-path="url(#clip0_998_748)">
<path d="M9.37499 21.5627H1.25002V1.43771H9.37499C9.72 1.43771 9.99997 1.11569 9.99997 0.718985C9.99997 0.32228 9.71995 0.000255585 9.37499 0.000255585H0.624982C0.280021 0.000255585 0 0.32222 0 0.718985V22.2814C0 22.6782 0.280021 23.0001 0.624982 23.0001H9.37494C9.71995 23.0001 9.99992 22.6781 9.99992 22.2814C9.99997 21.8846 9.71995 21.5627 9.37499 21.5627Z" fill="white"/>
<path d="M19.8187 10.9983L15.5063 5.96778C15.2619 5.68388 14.8663 5.68459 14.6225 5.96778C14.3781 6.25097 14.3781 6.71095 14.6225 6.99414L17.8725 10.7855H5.00194C4.65692 10.7855 4.37695 11.1104 4.37695 11.5115C4.37695 11.9126 4.65697 12.2375 5.00194 12.2375H17.8725L14.6225 16.0289C14.3781 16.3128 14.3781 16.772 14.6225 17.0552C14.8669 17.3391 15.2625 17.3391 15.5063 17.0552L19.8181 12.0247C20.0594 11.7451 20.0619 11.2772 19.8187 10.9983Z" fill="white"/>
</g>
<defs>
<clipPath id="clip0_998_748">
<rect width="20" height="23" fill="white"/>
</clipPath>
</defs>
</svg>
